# File created by Blade
# Date/Time:  Tue Apr 07 20:13:55 2015
# Frame Rate: 120.000 fps
#------------------------------------------------------
:FULLY-SPECIFIED
:DEGREES
1919
root 3.296295 33.057397 -10.087562 -18.036796 4.346146 -23.044206
Spine 26.327804 -14.723455 13.883518
Head -4.371443 -0.839698 6.254683
LeftShoulder 6.027173 32.413658 29.704687
LeftArm 81.893382 17.466267 -49.228608
LeftForeArm -54.034244 0.000000 68.868579
LeftHand -7.936421 -0.000000 -18.008575
LeftHandThumb1 -26.253704 0.000000 33.147579
RightShoulder 4.772083 -0.439228 -20.723350
RightArm 26.984041 -28.048614 60.521598
RightForeArm 56.068479 0.000000 86.819303
RightHand -3.104366 -0.000000 19.896637
RightHandThumb1 -24.326973 -0.000000 -32.862282
LeftUpLeg 3.712931 5.665009 19.560453
LeftLeg 25.974996 -0.000000 -0.000000
LeftFoot -16.198094 4.360568 -15.555508
LeftToeBase -10.269015 -0.000000 0.000000
RightUpLeg -116.636179 -5.442326 15.494944
RightLeg 92.776859 -0.000000 -0.000000
RightFoot 42.142005 -7.941147 4.558274
RightToeBase 33.307181 -0.000000 -0.000000
1920
root 3.291713 33.070689 -10.035475 -18.164959 4.364332 -23.168173
Spine 26.168852 -14.756689 14.005439
Head -3.920061 -0.975296 6.272892
LeftShoulder 6.022630 32.440737 29.912087
LeftArm 81.821711 17.635921 -49.149108
LeftForeArm -53.969388 -0.000000 69.820269
LeftHand -8.346768 -0.000000 -17.455903
LeftHandThumb1 -26.253704 0.000000 33.147579
RightShoulder 4.549986 -0.553760 -20.906054
RightArm 26.681135 -27.972315 60.751319
RightForeArm 55.648205 -0.000000 87.516968
RightHand -3.080855 -0.000000 20.090246
RightHandThumb1 -24.326973 -0.000000 -32.862282
LeftUpLeg 3.960215 5.549609 19.666123
LeftLeg 25.820192 -0.000000 -0.000000
LeftFoot -16.121755 4.677703 -15.144544
LeftToeBase -10.738536 -0.000000 0.000000
RightUpLeg -117.205047 -5.626576 15.580394
RightLeg 93.266599 -0.000000 -0.000000
RightFoot 42.152816 -7.877472 4.615149
RightToeBase 33.363928 -0.000000 -0.000000
1921
root 3.287087 33.083328 -9.983895 -18.264455 4.342294 -23.276492
Spine 25.999548 -14.746601 14.146158
Head -3.517640 -1.120652 6.259707
LeftShoulder 6.010615 32.411209 30.152963
LeftArm 81.672914 17.897103 -49.201631
LeftForeArm -53.669721 -0.000000 70.739182
LeftHand -8.275723 -0.000000 -17.191259
LeftHandThumb1 -26.253704 0.000000 33.147579
RightShoulder 4.275164 -0.533396 -21.098293
RightArm 26.375707 -28.037159 61.010307
RightForeArm 55.243606 -0.000000 88.103718
RightHand -2.977854 0.000000 20.479174
RightHandThumb1 -24.326973 -0.000000 -32.862282
LeftUpLeg 4.197927 5.455482 19.761028
LeftLeg 25.663930 -0.000000 -0.000000
LeftFoot -16.036396 4.986451 -14.702291
LeftToeBase -11.249019 -0.000000 0.000000
RightUpLeg -117.802545 -5.753146 15.658918
RightLeg 93.710901 -0.000000 -0.000000
RightFoot 42.158769 -7.884154 4.670086
RightToeBase 33.218256 -0.000000 -0.000000
1922
root 3.282102 33.094968 -9.930010 -18.389359 4.283499 -23.367072
Spine 25.868760 -14.707188 14.262209
Head -3.098903 -1.235962 6.252553
LeftShoulder 5.972085 32.478848 30.404990
LeftArm 81.589046 18.144131 -49.257047
LeftForeArm -53.363048 0.000000 71.652636
LeftHand -8.319019 0.000000 -17.087698
LeftHandThumb1 -26.253704 0.000000 33.147579
RightShoulder 3.974854 -0.624797 -21.246027
RightArm 26.168065 -28.036635 61.193171
RightForeArm 54.839540 0.000000 88.786204
RightHand -2.998136 -0.000000 20.840832
RightHandThumb1 -24.326973 -0.000000 -32.862282
LeftUpLeg 4.475968 5.341981 19.851051
LeftLeg 25.529484 -0.000000 -0.000000
LeftFoot -15.991180 5.258786 -14.333185
LeftToeBase -11.676427 -0.000000 0.000000
RightUpLeg -118.396825 -5.828596 15.766289
RightLeg 94.118433 -0.000000 -0.000000
RightFoot 42.123438 -8.009646 4.704350
RightToeBase 33.174922 -0.000000 -0.000000
1923
root 3.276903 33.105210 -9.877697 -18.470881 4.215414 -23.425673
Spine 25.684511 -14.632555 14.369418
Head -2.657602 -1.390552 6.254603
LeftShoulder 5.953533 32.537384 30.710937
LeftArm 81.475243 18.450789 -49.421749
LeftForeArm -52.697116 0.000000 72.529945
LeftHand -8.180073 -0.000000 -16.901972
LeftHandThumb1 -26.253704 0.000000 33.147579
RightShoulder 3.690320 -0.708072 -21.387699
RightArm 25.926953 -28.056551 61.410598
RightForeArm 54.354074 -0.000000 89.431114
RightHand -2.949564 -0.000000 20.885357
RightHandThumb1 -24.326973 -0.000000 -32.862282
LeftUpLeg 4.723621 5.189327 19.901491
LeftLeg 25.391571 -0.000000 -0.000000
LeftFoot -15.968912 5.521779 -14.038820
LeftToeBase -11.930843 -0.000000 0.000000
RightUpLeg -119.036738 -5.869825 15.813627
RightLeg 94.491977 -0.000000 -0.000000
RightFoot 42.085752 -7.995437 4.669330
RightToeBase 33.076474 -0.000000 -0.000000
1924
root 3.272538 33.116507 -9.821005 -18.583269 4.120579 -23.480495
Spine 25.539536 -14.552482 14.474290
Head -2.230541 -1.514208 6.241051
LeftShoulder 5.891975 32.630645 30.980623
LeftArm 81.373632 18.713694 -49.523813
LeftForeArm -52.142229 -0.000000 73.388390
LeftHand -8.096250 0.000000 -16.789384
LeftHandThumb1 -26.253704 0.000000 33.147579
RightShoulder 3.410996 -0.766522 -21.513105
RightArm 25.623023 -28.050067 61.718296
RightForeArm 53.804168 -0.000000 90.088559
RightHand -3.083526 0.000000 21.079753
RightHandThumb1 -24.326973 -0.000000 -32.862282
LeftUpLeg 5.028449 5.034000 19.962550
LeftLeg 25.242248 -0.000000 -0.000000
LeftFoot -15.942353 5.766225 -13.790038
LeftToeBase -12.227346 -0.000000 0.000000
RightUpLeg -119.653166 -5.886879 15.893576
RightLeg 94.842896 -0.000000 -0.000000
RightFoot 41.985558 -8.035117 4.631215
RightToeBase 33.020268 -0.000000 -0.000000
1925
root 3.300386 33.127182 -9.755345 -18.769912 4.090046 -23.406419
Spine 25.458845 -14.554851 14.486804
Head -1.809662 -1.604575 6.133530
LeftShoulder 5.844906 32.746610 31.161363
LeftArm 81.281723 18.931080 -49.496454
LeftForeArm -51.858543 -0.000000 74.374535
LeftHand -8.143568 -0.000000 -16.312463
LeftHandThumb1 -26.253704 0.000000 33.147579
RightShoulder 3.114425 -0.866275 -21.632253
RightArm 25.385576 -28.067985 61.907233
RightForeArm 53.588548 -0.000000 90.841969
RightHand -3.404726 -0.000000 20.831805
RightHandThumb1 -24.326973 -0.000000 -32.862282
LeftUpLeg 5.472514 4.708262 19.788602
LeftLeg 24.994150 -0.000000 -0.000000
LeftFoot -15.937110 6.143633 -13.598084
LeftToeBase -12.440072 -0.000000 0.000000
RightUpLeg -120.145353 -5.953464 15.296491
RightLeg 95.221108 -0.000000 -0.000000
RightFoot 41.717772 -8.115327 5.375053
RightToeBase 32.964832 -0.000000 -0.000000
1926
root 3.320980 33.131539 -9.694668 -18.881761 4.009456 -23.242019
Spine 25.318909 -14.465239 14.416119
Head -1.350094 -1.674747 6.029038
LeftShoulder 5.776338 32.842872 31.344787
LeftArm 81.224802 19.248640 -49.383390
LeftForeArm -51.842347 0.000000 75.345848
LeftHand -7.740805 -0.000000 -15.285799
LeftHandThumb1 -26.253704 0.000000 33.147579
RightShoulder 2.836963 -1.033815 -21.783666
RightArm 25.209313 -28.065801 62.211401
RightForeArm 53.000291 -0.000000 91.476951
RightHand -3.442409 -0.000000 20.928563
RightHandThumb1 -24.326973 -0.000000 -32.862282
LeftUpLeg 5.861548 4.458662 19.545785
LeftLeg 24.779574 -0.000000 -0.000000
LeftFoot -15.974560 6.498407 -13.457497
LeftToeBase -12.655525 -0.000000 0.000000
RightUpLeg -120.721975 -5.939194 14.799584
RightLeg 95.510664 -0.000000 -0.000000
RightFoot 41.622955 -8.195551 5.919707
RightToeBase 33.077722 -0.000000 -0.000000
1927
root 3.317177 33.140764 -9.638683 -18.936483 3.875659 -23.260504
Spine 25.105630 -14.327670 14.541168
Head -0.895653 -1.792659 5.968536
LeftShoulder 5.724413 32.873417 31.543020
LeftArm 81.129444 19.569087 -49.168698
LeftForeArm -52.668778 -0.000000 76.455354
LeftHand -7.828447 -0.000000 -13.764709
LeftHandThumb1 -26.253704 0.000000 33.147579
RightShoulder 2.536268 -1.228342 -21.914377
RightArm 25.050715 -28.046292 62.557107
RightForeArm 52.322404 -0.000000 92.115601
RightHand -3.536198 -0.000000 21.143152
RightHandThumb1 -24.326973 -0.000000 -32.862282
LeftUpLeg 6.138553 4.323747 19.574654
LeftLeg 24.635655 -0.000000 -0.000000
LeftFoot -16.022718 6.680479 -13.321512
LeftToeBase -12.822888 -0.000000 0.000000
RightUpLeg -121.372934 -5.871303 14.850249
RightLeg 95.764656 -0.000000 -0.000000
RightFoot 41.487672 -8.217720 5.881372
RightToeBase 32.984134 -0.000000 -0.000000
1928
root 3.313135 33.150568 -9.584917 -19.005090 3.676579 -23.279933
Spine 24.946616 -14.226869 14.647484
Head -0.451120 -1.788327 5.873815
LeftShoulder 5.551759 33.004990 31.667456
LeftArm 81.008276 19.817282 -49.110225
LeftForeArm -52.375205 -0.000000 77.449838
LeftHand -7.701488 -0.000000 -12.886417
LeftHandThumb1 -26.253704 0.000000 33.147579
RightShoulder 2.327345 -1.333641 -22.072055
RightArm 24.811446 -28.043988 62.981935
RightForeArm 51.933775 -0.000000 92.776735
RightHand -3.353553 -0.000000 20.677930
RightHandThumb1 -24.326973 -0.000000 -32.862282
LeftUpLeg 6.453556 4.273695 19.633461
LeftLeg 24.482286 -0.000000 -0.000000
LeftFoot -16.061097 6.872088 -13.169280
LeftToeBase -12.988234 -0.000000 0.000000
RightUpLeg -121.969786 -5.740124 14.870557
RightLeg 95.942474 -0.000000 -0.000000
RightFoot 41.494093 -8.221580 5.866817
RightToeBase 33.108695 -0.000000 -0.000000
1929
root 3.309711 33.159102 -9.530242 -19.046362 3.464055 -23.307092
Spine 24.740208 -14.084578 14.802137
Head 0.018882 -1.768562 5.758342
LeftShoulder 5.377826 33.164514 31.819918
LeftArm 80.936679 20.078259 -49.123447
LeftForeArm -51.944669 -0.000000 78.311094
LeftHand -7.674375 -0.000000 -12.573350
LeftHandThumb1 -26.253704 0.000000 33.147579
RightShoulder 2.074362 -1.379229 -22.249732
RightArm 24.517862 -28.095863 63.434885
RightForeArm 51.335949 -0.000000 93.358503
RightHand -3.708245 -0.000000 20.825719
RightHandThumb1 -24.326973 -0.000000 -32.862282
LeftUpLeg 6.748357 4.189363 19.677602
LeftLeg 24.324780 -0.000000 -0.000000
LeftFoot -16.114360 7.143569 -13.015155
LeftToeBase -13.055500 -0.000000 0.000000
RightUpLeg -122.562406 -5.586962 14.926868
RightLeg 96.103404 -0.000000 -0.000000
RightFoot 41.450849 -8.189698 5.824675
RightToeBase 33.034589 -0.000000 -0.000000
1930
root 3.307903 33.166917 -9.476454 -19.101189 3.260319 -23.342046
Spine 24.566037 -13.958408 14.966081
Head 0.436567 -1.726365 5.628906
LeftShoulder 5.171954 33.293352 31.940121
LeftArm 80.920340 20.355656 -49.025577
LeftForeArm -51.560349 -0.000000 79.155158
LeftHand -7.683358 -0.000000 -12.099221
LeftHandThumb1 -26.253704 0.000000 33.147579
RightShoulder 1.799153 -1.443700 -22.436832
RightArm 24.265857 -28.149986 63.882852
RightForeArm 50.771274 -0.000000 93.875950
RightHand -4.095740 -0.000000 20.918737
RightHandThumb1 -24.326973 -0.000000 -32.862282
LeftUpLeg 7.031975 4.117078 19.723692
LeftLeg 24.197020 -0.000000 -0.000000
LeftFoot -16.132894 7.435470 -12.823759
LeftToeBase -13.157657 -0.000000 0.000000
RightUpLeg -123.120330 -5.446097 14.991443
RightLeg 96.227376 -0.000000 -0.000000
RightFoot 41.407362 -8.140040 5.774842
RightToeBase 33.063746 -0.000000 -0.000000
1931
root 3.304393 33.174146 -9.426168 -19.145597 3.028622 -23.378791
Spine 24.387614 -13.866790 15.125277
Head 0.896536 -1.650887 5.479499
LeftShoulder 4.886101 33.465853 31.983006
LeftArm 80.934730 20.614925 -48.893674
LeftForeArm -51.198884 0.000000 79.915567
LeftHand -7.658875 0.000000 -11.774000
LeftHandThumb1 -26.253704 0.000000 33.147579
RightShoulder 1.593215 -1.492464 -22.615897
RightArm 24.097913 -28.231521 64.206995
RightForeArm 50.353605 0.000000 94.383876
RightHand -4.236396 -0.000000 21.225462
RightHandThumb1 -24.326973 -0.000000 -32.862282
LeftUpLeg 7.293352 4.054629 19.773927
LeftLeg 24.093098 -0.000000 -0.000000
LeftFoot -16.156659 7.765620 -12.610189
LeftToeBase -13.323397 -0.000000 0.000000
RightUpLeg -123.647198 -5.277481 15.055147
RightLeg 96.309962 -0.000000 -0.000000
RightFoot 41.391191 -8.178737 5.868982
RightToeBase 33.041757 -0.000000 -0.000000
